<svg width="431" height="448" viewBox="0 0 431 448" fill="none" xmlns="http://www.w3.org/2000/svg">
<path opacity="0.11" d="M233.397 445.26C331.997 445.26 411.928 434.363 411.928 420.921C411.928 407.48 331.997 396.583 233.397 396.583C134.797 396.583 54.8655 407.48 54.8655 420.921C54.8655 434.363 134.797 445.26 233.397 445.26Z" fill="black"/>
<path opacity="0.11" d="M423.335 284.006C425.467 336.447 374.198 454.772 224.497 447.696C83.4418 441.029 -56.138 328.592 22.9512 151.139C99.3794 -20.343 236.897 -6.10278 285.373 7.47783C338.974 22.4937 492.099 83.323 404.499 184.564C263.942 347.009 418.988 177.086 423.335 284.006Z" fill="black"/>
<path d="M164.855 117.3L133.615 87.2177L78.9795 144.113L110.217 174.193C122.566 150.357 141.608 130.56 164.855 117.3ZM94.71 238.053C94.71 224.341 96.7042 211.097 100.401 198.586H57.068V277.519H100.401C96.7042 265.008 94.71 251.764 94.71 238.053ZM233.397 99.1751C247.09 99.1751 260.315 101.172 272.809 104.874V61.4813H193.985V104.874C206.479 101.172 219.704 99.1751 233.397 99.1751ZM356.576 174.193L387.814 144.113L333.178 87.2177L301.938 117.3C325.185 130.56 344.228 150.357 356.576 174.193ZM366.392 198.586C370.089 211.097 372.083 224.341 372.083 238.053C372.083 251.764 370.089 265.008 366.392 277.519H409.725V198.586H366.392ZM301.938 358.806L333.178 388.888L387.814 331.992L356.576 301.913C344.228 325.749 325.185 345.545 301.938 358.806ZM110.217 301.912L78.9795 331.992L133.615 388.887L164.856 358.805C141.608 345.545 122.566 325.749 110.217 301.912ZM233.397 376.93C219.704 376.93 206.479 374.933 193.985 371.231V414.624H272.809V371.231C260.315 374.934 247.09 376.93 233.397 376.93Z" fill="black"/>
<path d="M383.965 234.568C382.146 151.31 314.225 84.3646 230.645 84.3646C213.046 84.3646 196.156 87.3716 180.412 92.8343C168.964 96.807 158.16 102.134 148.131 108.569C137.319 115.508 127.414 123.74 118.676 133.09C109.169 143.262 101.005 154.709 94.5195 167.179C83.4989 188.367 77.2393 212.434 77.2393 237.982C77.2393 242.816 77.4812 247.592 77.9161 252.311C83.9347 317.433 130.529 370.775 192.158 386.72C204.458 389.902 217.353 391.599 230.645 391.599C315.368 391.599 384.051 322.822 384.051 237.982C384.051 236.837 383.99 235.707 383.965 234.568ZM230.645 338.001C221.968 338.001 213.549 336.889 205.523 334.806C164.631 324.198 133.97 288.288 131.052 244.764C130.901 242.517 130.763 240.266 130.763 237.982C130.763 220.976 135.035 204.984 142.513 190.967C147.196 182.191 153.176 174.228 160.145 167.257C165.072 162.329 170.525 157.939 176.38 154.116C183.47 149.486 191.16 145.702 199.355 142.997C209.45 139.659 220.014 137.959 230.646 137.962C284.665 137.962 328.64 180.911 330.44 234.567C330.479 235.703 330.527 236.837 330.527 237.981C330.526 293.22 285.807 338.001 230.645 338.001Z" fill="#9B9C9E"/>
<path fill-rule="evenodd" clip-rule="evenodd" d="M156.603 308.058C156.603 308.058 151.474 311.892 148.851 313.852C148.41 314.181 147.878 314.366 147.328 314.381C146.778 314.396 146.237 314.24 145.778 313.935C145.26 313.59 144.818 313.143 144.479 312.621C144.14 312.098 143.911 311.512 143.807 310.898C143.702 310.284 143.724 309.655 143.872 309.049C144.019 308.444 144.288 307.875 144.663 307.378L149.216 301.339L156.603 308.058Z" fill="#B1CAFC"/>
<path fill-rule="evenodd" clip-rule="evenodd" d="M247.003 275.319C250.826 278.135 257.685 281.048 260.179 284.247C276.2 304.795 259.29 320.58 236.215 304.8C199.129 279.437 203.101 269.955 156.279 311.25L145.671 302.935C180.059 245.701 193.434 235.86 247.003 275.319Z" fill="#0E238C"/>
<path fill-rule="evenodd" clip-rule="evenodd" d="M203.579 371.883L200.549 383.121C200.386 383.727 200.009 384.253 199.488 384.602C198.968 384.951 198.338 385.1 197.717 385.02C196.871 384.912 196.103 384.471 195.581 383.796C195.06 383.12 194.827 382.265 194.935 381.418L196.608 368.326L203.579 371.883Z" fill="#B1CAFC"/>
<path fill-rule="evenodd" clip-rule="evenodd" d="M203.131 381.993C203.113 381.464 192.825 380.566 192.705 380.972C192.67 381.023 192.654 381.08 192.636 381.138C190.986 386.7 185.578 390.267 179.823 389.587C179.492 389.547 179.157 389.571 178.835 389.657C175.275 390.609 173.298 392.63 172.939 395.751C182.99 397.078 193.199 396.836 203.579 394.898L203.131 381.993ZM151.019 314.1C151.264 313.63 142.758 307.766 142.454 308.06C142.401 308.088 142.353 308.126 142.313 308.17C138.137 312.193 131.676 312.623 127.005 309.189C126.736 308.991 126.432 308.846 126.11 308.76C122.545 307.83 119.829 308.611 117.979 311.148C126.068 317.269 135.067 322.103 145.05 325.546L151.019 314.1Z" fill="#393A3F"/>
<path fill-rule="evenodd" clip-rule="evenodd" d="M261.078 296.808C265.822 296.995 273.132 295.559 276.989 296.808C301.757 304.833 293.367 334.719 265.425 334.599C220.515 334.406 219.979 327.387 205.126 374.6L194.242 373.562C190.69 306.862 194.629 294.193 261.078 296.808Z" fill="#0E238C"/>
<path fill-rule="evenodd" clip-rule="evenodd" d="M267.583 272.002C267.583 272.002 274.544 276.728 277.667 273.374C280.79 270.021 278.625 280.262 278.625 280.262L275.074 284.006L268.646 277.836L262.138 270.886L267.583 272.002ZM303.716 239.911C299.196 234.819 291.06 225.88 291.06 225.88C291.06 225.88 277.037 230.409 278.625 239.177C280.212 247.945 281.133 255.091 281.133 255.091L299.122 250.137C299.122 250.137 308.236 245.003 303.716 239.911Z" fill="#B1CAFC"/>
<path fill-rule="evenodd" clip-rule="evenodd" d="M278.585 239.177C278.585 239.177 283.281 284.893 266.455 288.419L265.424 296.808C265.424 296.808 280.934 292.73 284.325 285.807C287.716 278.884 291.824 244.183 291.824 244.183C285.52 244.659 280.937 243.183 278.585 239.177Z" fill="#393A3F"/>
<path fill-rule="evenodd" clip-rule="evenodd" d="M261.817 200.92C255.651 205.388 253.305 213.399 255.094 221.27C255.413 222.671 256.868 229.315 258.635 231.869C267.556 244.764 282.505 241.384 288.114 237.321C296.765 231.055 297.897 217.811 290.64 207.766C283.383 197.721 270.467 194.654 261.817 200.92Z" fill="#CADCFF"/>
<path fill-rule="evenodd" clip-rule="evenodd" d="M242.705 212.419C243.468 228.494 268.134 212.803 269.025 209.14C268.892 214.251 271.359 218.22 276.193 221.148C276.193 221.148 275.141 226.312 279.698 228.652C284.254 230.992 291.528 236.225 295.42 231.772C298.079 228.73 298.74 222.203 299.325 216.771C301.846 193.344 281.911 196.29 277.57 194.272C277.571 194.272 241.391 184.73 242.705 212.419Z" fill="#393A3F"/>
<path fill-rule="evenodd" clip-rule="evenodd" d="M275.648 222.016C275.648 219.119 277.993 216.771 280.886 216.771C283.778 216.771 286.124 219.119 286.124 222.016V222.524C286.124 225.701 283.552 228.275 280.38 228.275H275.648V222.016Z" fill="#CADCFF"/>
<path d="M231.357 249.143L271.27 281.031L272.484 279.493L233.135 248.374C232.461 248.144 231.762 248.63 231.357 249.143Z" fill="#D3D3D3"/>
<path fill-rule="evenodd" clip-rule="evenodd" d="M232.434 249.143L271.877 280.262L265.436 296.609L225.994 265.489L232.434 249.143Z" fill="white"/>
<path d="M264.513 296.451C264.179 298.047 264.689 298.528 266.375 297.457L273.1 280.262C272.805 279.352 272.093 279.233 270.964 279.906L264.513 296.451Z" fill="#D3D3D3"/>
<path d="M224.886 265.127C224.69 265.725 224.744 265.854 225.183 266.256L264.612 297.88L265.835 296.349L226.973 265.18L232.708 249.143H231.357L224.886 265.127Z" fill="#D3D3D3"/>
<path fill-rule="evenodd" clip-rule="evenodd" d="M269.481 295.085C276.818 298 280.683 313.48 282.515 331.12C352.168 311.69 328.978 254.184 300.327 236.122C299.114 241.965 295.037 243.297 288.261 244.183C288.067 263.287 286.932 274.14 269.481 295.085Z" fill="#393A3F"/>
<path fill-rule="evenodd" clip-rule="evenodd" d="M275.363 297.625C273.586 296.896 271.77 296.266 269.924 295.738C269.155 295.539 268.441 295.17 267.833 294.661C267.224 294.151 266.736 293.512 266.403 292.79C265.084 289.899 262.934 287.408 259.902 285.34C259.331 284.954 258.86 284.437 258.527 283.833C258.004 282.897 257.287 281.597 257.287 281.597C256.763 280.663 256.074 280.254 255.352 280.263C255.052 280.26 254.757 280.341 254.499 280.496C254.241 280.651 254.031 280.875 253.892 281.141C253.753 281.408 253.69 281.708 253.71 282.008C253.73 282.309 253.832 282.598 254.006 282.844C254.93 284.251 256.483 286.459 257.504 287.909C257.552 287.977 257.577 288.059 257.576 288.142C257.574 288.226 257.546 288.306 257.496 288.373C257.446 288.439 257.375 288.488 257.296 288.512C257.216 288.536 257.131 288.534 257.052 288.506C256.476 288.293 255.857 288.272 255.212 288.405C254.614 288.524 253.996 288.501 253.409 288.338C252.821 288.176 252.279 287.878 251.826 287.468C250.568 286.343 249.109 285.277 247.418 284.274C246.212 283.557 245.096 284.983 245.173 286.489L254.428 293.536C261.814 294.348 267.579 298.328 273.023 302.935C273.022 302.935 280.082 299.552 275.363 297.625Z" fill="#B1CAFC"/>
<path fill-rule="evenodd" clip-rule="evenodd" d="M291.212 297.458C285.34 299.305 278.447 298.699 275.529 297.723C273.561 297.064 270.443 301.271 272.616 302.536C277.419 305.329 286.754 309.887 294.729 312.276C296.136 307.24 293.324 301.711 291.212 297.458Z" fill="#B1CAFC"/>
<path fill-rule="evenodd" clip-rule="evenodd" d="M294.096 312.081C309.428 316.535 339.76 306.818 320.076 255.794C319.09 253.239 312.197 245.286 303.017 248.58C299.376 249.885 291.577 255.848 296.536 266.465C307.404 289.735 298.067 295.328 289.476 298.03C293.28 302.177 295.501 307.051 294.096 312.081Z" fill="#0E238C"/>
<path d="M258.778 267.72C257.73 267.734 256.58 267.979 256.278 268.94C255.939 270.018 257.008 271.17 258.228 270.948C260.714 270.524 263.222 272.144 265.589 273.773C265.589 273.773 267.661 274.387 268.03 272.831C268.367 271.405 266.339 270.371 264.601 269.439C262.79 268.468 260.84 267.693 258.778 267.72Z" fill="#B1CAFC"/>
</svg>
