<svg width="50" height="50" viewBox="0 0 50 50" fill="none" xmlns="http://www.w3.org/2000/svg">
<path d="M25 12.5V4.16666H16.6666M31.25 22.9167V27.0833M4.16663 25H8.33329M41.6666 25H45.8333M18.75 22.9167V27.0833M41.6666 33.3333C41.6666 34.4384 41.2276 35.4982 40.4462 36.2796C39.6648 37.061 38.605 37.5 37.5 37.5H18.3916C17.2866 37.5002 16.227 37.9394 15.4458 38.7208L10.8583 43.3083C10.6514 43.5151 10.3879 43.656 10.101 43.7131C9.81407 43.7701 9.51669 43.7408 9.24643 43.6289C8.97617 43.5169 8.74517 43.3274 8.58264 43.0842C8.4201 42.841 8.33333 42.555 8.33329 42.2625V16.6667C8.33329 15.5616 8.77228 14.5018 9.55368 13.7204C10.3351 12.939 11.3949 12.5 12.5 12.5H37.5C38.605 12.5 39.6648 12.939 40.4462 13.7204C41.2276 14.5018 41.6666 15.5616 41.6666 16.6667V33.3333Z" stroke="#B26FFE" stroke-width="5" stroke-linecap="round" stroke-linejoin="round"/>
</svg>
