<svg width="338" height="24" viewBox="0 0 338 24" fill="none" xmlns="http://www.w3.org/2000/svg">
<line y1="11.5" x2="150" y2="11.5" stroke="#D0D5DD"/>
<path d="M166.464 18.168C165.708 18.168 165.004 18.0327 164.35 17.762C163.706 17.4913 163.137 17.1133 162.642 16.628C162.157 16.1427 161.774 15.5733 161.494 14.92C161.224 14.2667 161.088 13.5527 161.088 12.778C161.088 12.0033 161.224 11.2893 161.494 10.636C161.774 9.97333 162.157 9.404 162.642 8.928C163.128 8.44267 163.697 8.06933 164.35 7.808C165.004 7.53733 165.708 7.402 166.464 7.402C167.23 7.402 167.934 7.53733 168.578 7.808C169.232 8.06933 169.801 8.44267 170.286 8.928C170.781 9.41333 171.164 9.98267 171.434 10.636C171.705 11.2893 171.84 12.0033 171.84 12.778C171.84 13.5527 171.7 14.2667 171.42 14.92C171.15 15.5733 170.772 16.1427 170.286 16.628C169.801 17.1133 169.232 17.4913 168.578 17.762C167.925 18.0327 167.22 18.168 166.464 18.168ZM166.464 16.656C167.006 16.656 167.5 16.558 167.948 16.362C168.406 16.166 168.802 15.8953 169.138 15.55C169.474 15.1953 169.736 14.7847 169.922 14.318C170.109 13.842 170.202 13.3287 170.202 12.778C170.202 12.2273 170.109 11.7187 169.922 11.252C169.736 10.7853 169.474 10.3747 169.138 10.02C168.802 9.66533 168.406 9.39 167.948 9.194C167.5 8.998 167.006 8.9 166.464 8.9C165.923 8.9 165.424 8.998 164.966 9.194C164.518 9.39 164.126 9.66533 163.79 10.02C163.454 10.3747 163.193 10.7853 163.006 11.252C162.829 11.7187 162.74 12.2273 162.74 12.778C162.74 13.3287 162.829 13.842 163.006 14.318C163.193 14.7847 163.454 15.1953 163.79 15.55C164.126 15.8953 164.523 16.166 164.98 16.362C165.438 16.558 165.932 16.656 166.464 16.656ZM173.533 18V10.426H175.045V11.952L174.905 11.728C175.073 11.2333 175.344 10.8787 175.717 10.664C176.091 10.44 176.539 10.328 177.061 10.328H177.523V11.77H176.865C176.343 11.77 175.918 11.9333 175.591 12.26C175.274 12.5773 175.115 13.0347 175.115 13.632V18H173.533Z" fill="#393A3F"/>
<path d="M166.464 18.168C165.708 18.168 165.004 18.0327 164.35 17.762C163.706 17.4913 163.137 17.1133 162.642 16.628C162.157 16.1427 161.774 15.5733 161.494 14.92C161.224 14.2667 161.088 13.5527 161.088 12.778C161.088 12.0033 161.224 11.2893 161.494 10.636C161.774 9.97333 162.157 9.404 162.642 8.928C163.128 8.44267 163.697 8.06933 164.35 7.808C165.004 7.53733 165.708 7.402 166.464 7.402C167.23 7.402 167.934 7.53733 168.578 7.808C169.232 8.06933 169.801 8.44267 170.286 8.928C170.781 9.41333 171.164 9.98267 171.434 10.636C171.705 11.2893 171.84 12.0033 171.84 12.778C171.84 13.5527 171.7 14.2667 171.42 14.92C171.15 15.5733 170.772 16.1427 170.286 16.628C169.801 17.1133 169.232 17.4913 168.578 17.762C167.925 18.0327 167.22 18.168 166.464 18.168ZM166.464 16.656C167.006 16.656 167.5 16.558 167.948 16.362C168.406 16.166 168.802 15.8953 169.138 15.55C169.474 15.1953 169.736 14.7847 169.922 14.318C170.109 13.842 170.202 13.3287 170.202 12.778C170.202 12.2273 170.109 11.7187 169.922 11.252C169.736 10.7853 169.474 10.3747 169.138 10.02C168.802 9.66533 168.406 9.39 167.948 9.194C167.5 8.998 167.006 8.9 166.464 8.9C165.923 8.9 165.424 8.998 164.966 9.194C164.518 9.39 164.126 9.66533 163.79 10.02C163.454 10.3747 163.193 10.7853 163.006 11.252C162.829 11.7187 162.74 12.2273 162.74 12.778C162.74 13.3287 162.829 13.842 163.006 14.318C163.193 14.7847 163.454 15.1953 163.79 15.55C164.126 15.8953 164.523 16.166 164.98 16.362C165.438 16.558 165.932 16.656 166.464 16.656ZM173.533 18V10.426H175.045V11.952L174.905 11.728C175.073 11.2333 175.344 10.8787 175.717 10.664C176.091 10.44 176.539 10.328 177.061 10.328H177.523V11.77H176.865C176.343 11.77 175.918 11.9333 175.591 12.26C175.274 12.5773 175.115 13.0347 175.115 13.632V18H173.533Z" fill="black" fill-opacity="0.2"/>
<line x1="188" y1="11.5" x2="338" y2="11.5" stroke="#D0D5DD"/>
</svg>
